<?xml version="1.0" standalone="no"?>
<!DOCTYPE svg PUBLIC "-//W3C//DTD SVG 20010904//EN"
 "http://www.w3.org/TR/2001/REC-SVG-20010904/DTD/svg10.dtd">
<svg version="1.0" xmlns="http://www.w3.org/2000/svg"
 width="64.000000pt" height="64.000000pt" viewBox="0 0 64.000000 64.000000"
 preserveAspectRatio="xMidYMid meet">

<g transform="translate(0.000000,64.000000) scale(0.100000,-0.100000)"
fill="#d4af37" stroke="none">
<path d="M306 552 c-2 -4 4 -8 14 -8 10 0 16 4 14 8 -3 4 -9 8 -14 8 -5 0 -11
-4 -14 -8z"/>
<path d="M300 505 c0 -5 -18 -45 -41 -88 -28 -53 -44 -75 -53 -70 -7 5 -40 28
-75 52 -57 41 -114 64 -92 37 14 -17 41 -172 41 -237 0 -44 -4 -61 -15 -65
-20 -8 -19 -40 1 -48 20 -8 488 -8 508 0 20 8 21 40 1 48 -11 4 -15 21 -15 65
0 65 27 220 41 237 23 27 -37 4 -94 -38 -34 -24 -67 -48 -74 -52 -7 -4 -26 21
-52 71 -23 43 -41 83 -41 88 0 6 -9 11 -20 11 -11 0 -20 -5 -20 -11z m68 -90
c24 -47 48 -85 54 -85 6 0 42 23 80 51 38 28 72 49 74 47 2 -3 -5 -51 -16
-109 -11 -57 -20 -121 -20 -141 l0 -38 -220 0 -220 0 0 40 0 40 165 0 c103 0
165 4 165 10 0 6 -63 10 -168 10 l-169 0 -16 92 c-9 50 -15 93 -13 96 2 2 36
-19 74 -47 38 -28 74 -51 79 -51 5 0 30 38 54 85 24 47 46 85 49 85 3 0 25
-38 48 -85z m212 -305 c0 -6 -93 -10 -260 -10 -167 0 -260 4 -260 10 0 6 93
10 260 10 167 0 260 -4 260 -10z"/>
<path d="M293 355 c-16 -34 -16 -36 5 -57 l22 -22 22 22 c21 21 21 23 5 57 -9
19 -21 35 -27 35 -6 0 -18 -16 -27 -35z m45 -9 c9 -19 8 -27 -4 -36 -23 -20
-46 5 -32 36 6 13 14 24 18 24 4 0 12 -11 18 -24z"/>
<path d="M470 230 c0 -5 9 -10 20 -10 11 0 20 5 20 10 0 6 -9 10 -20 10 -11 0
-20 -4 -20 -10z"/>
<path d="M110 180 c0 -5 5 -10 10 -10 6 0 10 5 10 10 0 6 -4 10 -10 10 -5 0
-10 -4 -10 -10z"/>
<path d="M160 180 c0 -5 5 -10 10 -10 6 0 10 5 10 10 0 6 -4 10 -10 10 -5 0
-10 -4 -10 -10z"/>
<path d="M210 180 c0 -5 5 -10 10 -10 6 0 10 5 10 10 0 6 -4 10 -10 10 -5 0
-10 -4 -10 -10z"/>
<path d="M260 180 c0 -5 5 -10 10 -10 6 0 10 5 10 10 0 6 -4 10 -10 10 -5 0
-10 -4 -10 -10z"/>
<path d="M310 180 c0 -5 5 -10 10 -10 6 0 10 5 10 10 0 6 -4 10 -10 10 -5 0
-10 -4 -10 -10z"/>
<path d="M360 180 c0 -5 5 -10 10 -10 6 0 10 5 10 10 0 6 -4 10 -10 10 -5 0
-10 -4 -10 -10z"/>
<path d="M410 180 c0 -5 5 -10 10 -10 6 0 10 5 10 10 0 6 -4 10 -10 10 -5 0
-10 -4 -10 -10z"/>
<path d="M460 180 c0 -5 5 -10 10 -10 6 0 10 5 10 10 0 6 -4 10 -10 10 -5 0
-10 -4 -10 -10z"/>
<path d="M510 180 c0 -5 5 -10 10 -10 6 0 10 5 10 10 0 6 -4 10 -10 10 -5 0
-10 -4 -10 -10z"/>
</g>
</svg>
