<?xml version="1.0" standalone="no"?>
<!DOCTYPE svg PUBLIC "-//W3C//DTD SVG 20010904//EN"
 "http://www.w3.org/TR/2001/REC-SVG-20010904/DTD/svg10.dtd">
<svg version="1.0" xmlns="http://www.w3.org/2000/svg"
 width="2400.000000pt" height="308.000000pt" viewBox="0 0 2400.000000 308.000000"
 preserveAspectRatio="xMidYMid meet">

<g transform="translate(0.000000,308.000000) scale(0.100000,-0.100000)"
fill="#FFD700" stroke="none">
<path d="M10891 2901 c-29 -98 -55 -210 -58 -248 -6 -75 2 -143 17 -143 5 0
24 28 42 62 48 91 127 171 206 210 l67 33 367 3 368 3 -2 -1288 -3 -1288 -22
-42 c-13 -23 -35 -50 -51 -61 -26 -19 -130 -57 -177 -64 -11 -2 -20 -10 -20
-18 0 -13 15 -14 95 -10 150 8 601 6 763 -4 127 -7 147 -6 147 7 0 9 -14 17
-38 21 -107 17 -238 122 -290 233 l-27 58 -3 1228 -2 1227 5172 -2 c5013 -3
5175 -4 5228 -22 81 -27 125 -52 166 -93 39 -38 94 -144 94 -179 0 -24 25 -50
34 -36 3 5 13 38 21 73 19 77 33 463 18 472 -5 3 -64 -5 -129 -18 l-120 -25
-5800 3 c-4669 2 -5808 5 -5844 15 -25 7 -72 26 -104 43 -33 16 -60 29 -61 29
-1 0 -25 -80 -54 -179z"/>
<path d="M1276 2915 c-531 -76 -920 -327 -1126 -727 -94 -181 -136 -352 -147
-588 -20 -449 140 -887 432 -1185 108 -111 223 -194 369 -265 239 -118 390
-144 836 -144 333 0 418 8 590 55 86 24 229 88 276 124 l33 25 3 518 c3 473 5
520 21 550 23 41 80 77 168 105 38 12 69 27 69 33 0 19 -86 24 -512 31 -364 6
-408 5 -408 -9 0 -15 66 -49 123 -62 16 -4 56 -20 90 -36 103 -48 97 -16 97
-548 l0 -461 -37 -31 c-94 -77 -238 -113 -448 -113 -214 1 -383 38 -572 128
-286 135 -504 349 -648 635 -99 198 -143 366 -152 586 -21 501 213 915 640
1130 190 96 367 137 597 137 443 1 746 -187 853 -529 18 -59 37 -104 45 -104
6 0 12 2 12 5 0 3 15 114 34 247 19 134 38 279 41 324 l7 80 -124 18 c-469 67
-572 78 -818 81 -176 3 -273 0 -344 -10z"/>
<path d="M17483 2440 c-212 -56 -357 -117 -481 -203 -256 -176 -375 -467 -376
-917 0 -153 2 -171 27 -245 91 -274 354 -551 662 -700 181 -87 339 -117 516
-97 275 30 489 131 675 316 228 228 328 510 294 826 -52 489 -373 893 -811
1021 -58 17 -108 22 -234 25 -153 4 -165 3 -272 -26z m197 -1070 l0 -970 -22
0 c-13 0 -33 3 -45 6 l-23 6 0 964 0 964 45 0 45 0 0 -970z m158 -1 l2 -966
-31 -7 c-17 -3 -38 -6 -45 -6 -12 0 -14 154 -14 976 l0 975 43 -3 42 -3 3
-966z m-322 -937 c-9 -8 -138 58 -200 102 -213 152 -357 398 -411 699 -24 133
-17 376 15 492 28 107 107 266 170 342 95 117 239 213 370 246 l55 14 3 -945
c1 -520 0 -947 -2 -950z m515 1838 c125 -63 261 -191 343 -323 217 -349 234
-856 39 -1185 -69 -117 -189 -230 -308 -290 -44 -22 -161 -62 -182 -62 -11 0
-13 165 -13 955 l0 954 38 -13 c22 -8 59 -24 83 -36z"/>
<path d="M23535 2459 c-262 -35 -489 -167 -562 -325 -40 -87 -44 -195 -11
-291 49 -139 117 -225 397 -503 344 -341 409 -432 419 -578 4 -66 2 -78 -27
-137 -114 -232 -487 -289 -672 -104 -55 55 -87 128 -95 217 -4 46 -11 71 -18
69 -16 -5 -55 -200 -56 -274 0 -77 9 -102 60 -157 104 -113 316 -134 546 -56
273 93 463 295 481 512 12 138 -37 272 -152 415 -60 75 -109 120 -357 331
-139 118 -222 212 -264 298 -35 70 -36 76 -32 161 3 65 10 99 27 131 33 65 87
118 149 149 51 25 68 28 157 28 85 0 106 -3 143 -23 82 -44 160 -149 193 -259
15 -51 34 -56 43 -10 9 52 35 268 38 322 l3 50 -69 17 c-86 22 -248 30 -341
17z"/>
<path d="M3636 2452 c-9 -15 -60 -155 -161 -442 -301 -856 -507 -1405 -559
-1495 -47 -80 -121 -132 -225 -159 -25 -7 -47 -18 -49 -25 -3 -10 20 -11 114
-4 149 10 248 10 392 0 93 -7 112 -6 112 6 0 8 -23 20 -60 30 -72 21 -84 39
-77 117 6 75 125 452 194 618 l13 32 296 -2 296 -3 14 -35 c7 -19 64 -168 127
-330 63 -162 118 -305 121 -317 6 -20 -1 -27 -68 -60 -102 -50 -101 -68 2 -59
173 15 333 18 438 8 122 -12 184 -7 184 14 0 8 -9 14 -19 14 -10 0 -49 9 -86
21 -102 31 -143 78 -242 274 -175 346 -310 669 -583 1400 -79 209 -148 386
-155 393 -8 8 -15 10 -19 4z m109 -792 c59 -201 110 -373 113 -382 4 -17 -12
-18 -241 -18 l-245 0 33 93 c18 50 74 226 126 390 51 163 96 294 99 290 4 -5
55 -172 115 -373z"/>
<path d="M5165 2408 c-3 -29 -30 -285 -60 -568 -97 -908 -155 -1363 -181
-1412 -17 -33 -62 -55 -129 -65 -28 -3 -45 -11 -45 -19 0 -11 27 -14 133 -14
74 0 209 -3 300 -7 146 -5 167 -4 167 9 0 9 -19 22 -47 33 -89 33 -130 62
-144 102 -16 48 -6 315 22 583 22 224 88 752 94 758 5 6 10 -4 174 -366 175
-384 328 -694 414 -837 88 -147 177 -275 192 -275 6 0 37 53 68 118 30 64 117
248 192 407 211 449 467 965 477 959 4 -3 8 -26 8 -52 0 -26 16 -175 35 -332
54 -445 65 -562 72 -758 6 -174 5 -187 -17 -258 -13 -40 -20 -77 -16 -81 4 -4
143 -9 310 -11 270 -4 304 -3 309 11 8 22 2 25 -94 43 -46 8 -95 22 -109 29
-44 23 -88 82 -104 138 -46 160 -125 793 -196 1567 -17 184 -35 339 -40 344
-5 5 -31 -26 -62 -75 -156 -243 -275 -485 -588 -1199 -166 -380 -208 -466
-220 -454 -5 5 -33 63 -63 129 -96 212 -336 712 -469 980 -199 398 -331 625
-364 625 -8 0 -15 -20 -19 -52z"/>
<path d="M19091 2430 l-21 -35 0 -915 c0 -632 -4 -927 -11 -954 -13 -46 -49
-83 -122 -126 -127 -73 -124 -94 8 -74 113 17 317 17 460 0 69 -9 114 -10 120
-4 15 14 -32 45 -95 63 -109 31 -122 38 -144 80 -18 36 -22 65 -28 265 -4 124
-12 335 -18 470 -11 270 -13 725 -2 752 6 13 21 1 72 -59 166 -194 460 -528
639 -723 339 -371 858 -880 897 -880 33 0 48 393 46 1225 -1 578 1 756 11 775
9 19 34 33 95 55 45 17 82 35 82 42 0 16 -102 23 -388 26 -174 1 -242 -1 -242
-9 0 -21 25 -33 100 -48 85 -18 122 -48 139 -113 9 -38 37 -1367 30 -1452 l-4
-44 -185 204 c-381 421 -950 1030 -1282 1374 l-135 140 -22 -35z"/>
<path d="M22451 2435 c-28 -13 -123 -15 -587 -15 -495 0 -554 -2 -554 -16 0
-15 34 -33 131 -68 25 -9 57 -28 70 -42 l24 -26 0 -886 0 -887 -23 -47 c-29
-58 -63 -86 -114 -94 -22 -4 -38 -12 -38 -20 0 -20 1098 -21 1122 -1 11 8 22
58 37 162 11 83 24 160 27 172 4 16 2 23 -8 23 -8 0 -25 -25 -38 -57 -60 -144
-198 -224 -366 -209 -122 10 -249 67 -310 139 l-24 29 0 395 0 396 183 -6
c206 -6 287 -19 320 -53 12 -12 31 -51 42 -85 19 -56 46 -92 59 -78 12 12 54
419 43 419 -3 0 -41 -15 -84 -32 l-78 -33 -242 -3 -243 -3 0 391 0 392 213 -4
c204 -3 214 -4 268 -29 67 -32 96 -69 111 -143 10 -53 20 -67 33 -47 16 28 76
382 64 381 -2 -1 -19 -7 -38 -15z"/>
<path d="M8640 2430 c-9 -6 -230 -10 -573 -10 -526 0 -558 -1 -555 -17 2 -12
31 -29 83 -49 107 -42 131 -65 140 -134 3 -30 5 -428 3 -885 l-3 -830 -24 -53
c-27 -59 -64 -90 -116 -99 -20 -3 -35 -11 -35 -19 0 -12 90 -14 548 -13 301 0
556 4 566 8 17 6 23 30 42 162 12 85 24 163 25 174 8 42 -24 18 -42 -31 -43
-114 -159 -198 -291 -211 -126 -11 -275 37 -362 117 l-46 43 0 400 0 400 183
-6 c285 -10 317 -21 355 -128 25 -70 46 -99 61 -84 5 6 14 51 20 100 6 50 16
138 23 197 6 59 9 110 6 113 -3 3 -47 -10 -97 -29 l-91 -36 -230 0 -230 0 0
391 0 391 213 -4 212 -3 60 -30 c49 -24 64 -38 83 -75 12 -24 22 -56 22 -70 0
-33 16 -58 29 -45 10 10 54 223 67 323 6 47 5 52 -12 52 -11 0 -26 -5 -34 -10z"/>
<path d="M14820 2401 c0 -5 24 -20 53 -34 69 -31 121 -78 146 -131 21 -42 21
-54 21 -857 0 -530 -4 -827 -10 -851 -14 -50 -65 -114 -125 -160 -75 -57 -72
-62 36 -52 98 9 424 12 543 5 48 -3 71 -1 74 7 2 7 -2 14 -10 16 -7 2 -33 9
-56 16 -55 14 -123 76 -154 138 -23 46 -23 54 -23 357 l0 310 116 0 116 0 87
-43 c108 -54 209 -150 316 -302 40 -58 105 -150 144 -205 169 -240 336 -347
541 -348 85 -1 162 14 233 45 63 26 50 42 -39 48 -198 15 -387 171 -674 556
-81 110 -174 233 -205 274 l-57 76 69 79 c94 107 175 231 208 318 110 284 20
558 -222 672 -147 69 -143 69 -660 73 -302 2 -468 0 -468 -7z m775 -96 c208
-55 349 -282 347 -560 -2 -223 -70 -355 -207 -402 -40 -14 -83 -18 -215 -18
-91 0 -173 3 -182 7 -17 7 -18 39 -18 482 0 321 3 477 11 481 39 25 187 30
264 10z"/>
<path d="M12570 2388 c0 -10 17 -20 46 -27 70 -18 123 -48 144 -84 19 -31 20
-56 20 -920 0 -957 1 -936 -52 -971 -13 -8 -48 -22 -78 -29 -36 -9 -56 -20
-58 -31 -3 -15 26 -16 354 -14 269 2 358 6 361 15 3 7 -8 15 -24 18 -96 20
-119 31 -164 74 -30 30 -51 60 -58 86 -7 26 -11 191 -11 473 l0 432 586 0 585
0 -3 -457 -3 -458 -25 -45 c-21 -38 -37 -51 -97 -80 -40 -19 -72 -38 -70 -42
1 -5 161 -9 355 -11 272 -2 352 1 352 10 0 7 -19 17 -42 24 -106 28 -170 87
-188 173 -8 35 -10 314 -8 898 l3 846 25 27 c14 15 51 34 93 46 37 12 67 25
65 31 -5 14 -688 16 -688 2 0 -6 33 -20 73 -32 86 -25 138 -58 148 -92 4 -14
7 -179 8 -367 l1 -343 -585 0 -585 0 0 345 c0 276 3 352 14 380 18 41 77 82
134 91 26 4 42 12 42 20 0 12 -50 14 -282 14 -156 0 -307 3 -335 6 -44 6 -53
4 -53 -8z"/>
<path d="M9675 1879 c-142 -19 -322 -99 -403 -180 -101 -101 -141 -214 -149
-424 -5 -127 -3 -145 16 -196 81 -214 313 -403 541 -440 34 -5 86 -5 138 1
246 31 441 189 518 420 28 84 26 252 -5 350 -37 121 -87 207 -171 291 -141
142 -304 202 -485 178z m45 -620 l0 -550 -27 3 -28 3 -3 548 -2 547 30 0 30 0
0 -551z m88 -1 l-3 -553 -22 -3 -23 -3 0 555 0 556 25 0 25 0 -2 -552z m-178
7 c0 -613 9 -565 -96 -497 -164 106 -264 308 -264 531 0 153 42 274 130 374
54 61 163 125 218 127 9 0 12 -113 12 -535z m322 483 c113 -72 200 -202 240
-360 17 -69 20 -102 15 -198 -7 -166 -48 -269 -142 -364 -41 -41 -134 -94
-192 -111 l-23 -6 0 541 0 542 28 -7 c15 -3 48 -20 74 -37z"/>
<path d="M11030 1868 c-22 -6 -151 -9 -338 -6 -176 2 -301 0 -299 -6 2 -5 27
-17 56 -28 37 -14 55 -27 62 -45 6 -16 9 -223 7 -538 -2 -415 -6 -515 -17
-528 -7 -9 -31 -22 -52 -27 -22 -6 -39 -14 -39 -18 0 -4 90 -7 200 -7 189 0
235 5 173 20 -36 8 -66 33 -92 76 -20 32 -21 49 -21 272 l0 237 124 0 c111 0
126 -2 157 -23 24 -16 36 -34 45 -67 7 -28 14 -39 17 -30 11 25 27 142 27 192
l0 47 -36 -24 c-35 -24 -44 -25 -185 -25 l-149 0 0 214 c0 188 2 215 16 220 9
3 69 9 133 13 97 5 122 3 149 -11 33 -17 62 -61 62 -96 0 -11 4 -20 9 -20 5 0
16 42 26 93 9 50 18 100 21 110 6 19 -4 20 -56 5z"/>
</g>
</svg>
